<svg data-v-0f78e255="" version="1.0" xmlns="http://www.w3.org/2000/svg" xmlns:xlink="http://www.w3.org/1999/xlink" width="100%" height="100%" viewBox="0 0 340.000000 250.000000" preserveAspectRatio="xMidYMid meet" color-interpolation-filters="sRGB" class="el-tooltip" style="margin: auto;">  <g data-v-0f78e255="" fill="#ffc120" class="bordersvg b-d1" transform="translate(98.31500244140625,65.21499633789062)"><polyline stroke="#ffc120" stroke-width="3" fill-opacity="0" fill="#feffff" points="71.68499755859375,20 71.68499755859375,10 0,0 0,119.57000732421875 71.68499755859375,109.57000732421875 71.68499755859375,99.57000732421875"></polyline> <g transform="translate(0,20)"><g><rect data-gra="graph-name-bg" stroke-width="2" class="i-icon-bg" x="0" y="0" width="143.37000274658203" height="79.57000732421875" fill-opacity="0"></rect> <!----> <!----> </g> <g transform="translate(10,3)"><g data-gra="path-name" fill-rule="" class="tp-name" transform="translate(0,0)"><g><path d="M10.34 0L5.79 0L5.79-46.15L25.29-46.15Q28.28-46.15 30.78-44.88Q33.28-43.62 35.10-41.57Q36.92-39.52 37.93-36.92Q38.94-34.32 38.94-31.66L38.94-31.66Q38.94-29.12 38.19-26.81Q37.44-24.51 36.11-22.65Q34.77-20.80 32.89-19.53Q31.01-18.27 28.67-17.81L28.67-17.81L39.98 0L34.84 0L23.98-17.03L10.34-17.03L10.34 0ZM10.34-42.12L10.34-21.06L25.41-21.06Q27.43-21.06 29.09-21.94Q30.75-22.82 31.92-24.31Q33.09-25.80 33.73-27.69Q34.38-29.57 34.38-31.66L34.38-31.66Q34.38-33.73 33.64-35.65Q32.89-37.57 31.62-39Q30.36-40.43 28.63-41.27Q26.91-42.12 25.03-42.12L25.03-42.12L10.34-42.12ZM70.00 8.26L65.59 8.26L65.59-3.31L43.94-3.31L43.94-7.21L67.02-37.12L70.00-37.12L70.00-7.35L75.72-7.35L75.72-3.31L70.00-3.31L70.00 8.26ZM66.04-30.16L48.62-7.35L66.04-7.35L66.04-30.16ZM129.16 0L124.61 0L124.61-37.90L107.77-8.58L105.11-8.58L88.27-37.90L88.27 0L83.72 0L83.72-46.15L88.40-46.15L106.41-14.56L124.54-46.15L129.16-46.15L129.16 0Z" transform="translate(-5.785, 46.15)"></path></g> <!----> <!----> <!----> <!----> <!----> <!----> <!----></g> <g data-gra="path-slogan" fill-rule="" class="tp-slogan" transform="translate(4.045001983642578,61.410003662109375)"><!----> <!----> <g mask="url(#9ad6da84-d54b-48b6-bb76-f45ddb39a626)"><g><rect data-gra="graph-name-bg" stroke-width="2" class="i-icon-bg" x="0" y="0" width="115.27999877929688" height="12.160000801086426" fill-opacity="1"></rect> <!----> <!----> </g> <g transform="translate(5,2)"><g fill="#feffff"><path d="M2.08-4.14L2.08-7.07L3.40-7.07C4.01-7.07 4.48-6.96 4.81-6.76C5.14-6.55 5.30-6.18 5.30-5.66C5.30-5.15 5.14-4.77 4.81-4.52C4.48-4.27 4.01-4.14 3.40-4.14ZM5.40 0L6.53 0L4.54-3.43C5.07-3.57 5.50-3.82 5.82-4.19C6.14-4.56 6.30-5.05 6.30-5.66C6.30-6.07 6.23-6.42 6.10-6.70C5.96-6.98 5.77-7.20 5.53-7.38C5.28-7.56 4.99-7.68 4.65-7.76C4.31-7.83 3.94-7.87 3.54-7.87L1.08-7.87L1.08 0L2.08 0L2.08-3.32L3.50-3.32ZM8.05-7.87L8.05 0L9.05 0L9.05-7.87ZM10.75-3.94C10.75-3.30 10.84-2.72 11.02-2.21C11.19-1.71 11.44-1.28 11.75-0.93C12.06-0.58 12.43-0.32 12.86-0.13C13.30 0.05 13.77 0.14 14.29 0.14C14.82 0.14 15.29 0.06 15.71-0.11C16.13-0.29 16.47-0.50 16.73-0.77L16.73-4.08L14.15-4.08L14.15-3.25L15.82-3.25L15.82-1.20C15.66-1.06 15.45-0.94 15.20-0.86C14.95-0.77 14.68-0.73 14.40-0.73C13.98-0.73 13.60-0.81 13.28-0.96C12.95-1.11 12.68-1.33 12.46-1.61C12.24-1.89 12.07-2.23 11.96-2.62C11.84-3.02 11.78-3.46 11.78-3.96C11.78-4.45 11.85-4.89 11.97-5.28C12.09-5.67 12.27-6.01 12.49-6.28C12.72-6.56 12.99-6.77 13.31-6.92C13.63-7.07 13.99-7.14 14.39-7.14C14.79-7.14 15.12-7.07 15.38-6.93C15.64-6.79 15.87-6.62 16.07-6.41L16.63-7.04C16.40-7.28 16.10-7.51 15.74-7.71C15.37-7.91 14.92-8.02 14.38-8.02C13.85-8.02 13.36-7.92 12.92-7.73C12.48-7.55 12.10-7.28 11.78-6.92C11.45-6.57 11.20-6.14 11.02-5.64C10.84-5.14 10.75-4.57 10.75-3.94ZM18.61-7.87L18.61 0L19.61 0L19.61-3.71L23.27-3.71L23.27 0L24.28 0L24.28-7.87L23.27-7.87L23.27-4.57L19.61-4.57L19.61-7.87ZM28.07-7.03L28.07 0L29.08 0L29.08-7.03L31.45-7.03L31.45-7.87L25.69-7.87L25.69-7.03ZM35.29-7.87L35.29 0L36.29 0L36.29-3.53L39.29-3.53L39.29-4.37L36.29-4.37L36.29-7.03L39.83-7.03L39.83-7.87ZM44.00 0.14C44.50 0.14 44.95 0.05 45.37-0.14C45.78-0.34 46.13-0.61 46.43-0.97C46.73-1.32 46.97-1.75 47.13-2.26C47.29-2.77 47.38-3.34 47.38-3.97C47.38-4.60 47.29-5.16 47.13-5.66C46.97-6.16 46.73-6.58 46.43-6.93C46.13-7.28 45.78-7.55 45.37-7.73C44.95-7.92 44.50-8.02 44.00-8.02C43.51-8.02 43.05-7.92 42.64-7.74C42.23-7.56 41.88-7.29 41.58-6.94C41.28-6.59 41.05-6.17 40.89-5.67C40.73-5.17 40.64-4.60 40.64-3.97C40.64-3.34 40.73-2.77 40.89-2.26C41.05-1.75 41.28-1.32 41.58-0.97C41.88-0.61 42.23-0.34 42.64-0.14C43.05 0.05 43.51 0.14 44.00 0.14ZM44.00-0.73C43.65-0.73 43.33-0.81 43.05-0.96C42.77-1.11 42.52-1.33 42.32-1.61C42.11-1.90 41.96-2.24 41.84-2.63C41.73-3.03 41.68-3.48 41.68-3.97C41.68-4.46 41.73-4.90 41.84-5.29C41.96-5.68 42.11-6.02 42.32-6.29C42.52-6.56 42.77-6.77 43.05-6.92C43.33-7.07 43.65-7.14 44.00-7.14C44.36-7.14 44.67-7.07 44.96-6.92C45.24-6.77 45.49-6.56 45.69-6.29C45.89-6.02 46.05-5.68 46.16-5.29C46.28-4.90 46.33-4.46 46.33-3.97C46.33-3.48 46.28-3.03 46.16-2.63C46.05-2.24 45.89-1.90 45.69-1.61C45.49-1.33 45.24-1.11 44.96-0.96C44.67-0.81 44.36-0.73 44.00-0.73ZM50.06-4.14L50.06-7.07L51.38-7.07C52.00-7.07 52.47-6.96 52.80-6.76C53.13-6.55 53.29-6.18 53.29-5.66C53.29-5.15 53.13-4.77 52.80-4.52C52.47-4.27 52.00-4.14 51.38-4.14ZM53.39 0L54.52 0L52.52-3.43C53.06-3.57 53.49-3.82 53.81-4.19C54.13-4.56 54.29-5.05 54.29-5.66C54.29-6.07 54.22-6.42 54.08-6.70C53.95-6.98 53.76-7.20 53.51-7.38C53.27-7.56 52.98-7.68 52.64-7.76C52.30-7.83 51.93-7.87 51.53-7.87L49.07-7.87L49.07 0L50.06 0L50.06-3.32L51.49-3.32ZM58.46-7.87L58.46 0L59.39 0L59.39-4.33C59.39-4.68 59.37-5.07 59.34-5.50C59.31-5.92 59.28-6.31 59.26-6.66L59.30-6.66L59.93-4.91L61.45-0.79L62.02-0.79L63.53-4.91L64.16-6.66L64.21-6.66C64.18-6.31 64.15-5.92 64.12-5.50C64.09-5.07 64.08-4.68 64.08-4.33L64.08 0L65.03 0L65.03-7.87L63.85-7.87L62.34-3.65L61.79-2.04L61.74-2.04L61.16-3.65L59.64-7.87ZM70.09 0.14C70.59 0.14 71.04 0.05 71.45-0.14C71.87-0.34 72.22-0.61 72.52-0.97C72.82-1.32 73.05-1.75 73.22-2.26C73.38-2.77 73.46-3.34 73.46-3.97C73.46-4.60 73.38-5.16 73.22-5.66C73.05-6.16 72.82-6.58 72.52-6.93C72.22-7.28 71.87-7.55 71.45-7.73C71.04-7.92 70.59-8.02 70.09-8.02C69.60-8.02 69.14-7.92 68.73-7.74C68.32-7.56 67.96-7.29 67.67-6.94C67.37-6.59 67.14-6.17 66.98-5.67C66.81-5.17 66.73-4.60 66.73-3.97C66.73-3.34 66.81-2.77 66.98-2.26C67.14-1.75 67.37-1.32 67.67-0.97C67.96-0.61 68.32-0.34 68.73-0.14C69.14 0.05 69.60 0.14 70.09 0.14ZM70.09-0.73C69.74-0.73 69.42-0.81 69.14-0.96C68.85-1.11 68.61-1.33 68.41-1.61C68.20-1.90 68.04-2.24 67.93-2.63C67.82-3.03 67.76-3.48 67.76-3.97C67.76-4.46 67.82-4.90 67.93-5.29C68.04-5.68 68.20-6.02 68.41-6.29C68.61-6.56 68.85-6.77 69.14-6.92C69.42-7.07 69.74-7.14 70.09-7.14C70.44-7.14 70.76-7.07 71.05-6.92C71.33-6.77 71.57-6.56 71.78-6.29C71.98-6.02 72.14-5.68 72.25-5.29C72.36-4.90 72.42-4.46 72.42-3.97C72.42-3.48 72.36-3.03 72.25-2.63C72.14-2.24 71.98-1.90 71.78-1.61C71.57-1.33 71.33-1.11 71.05-0.96C70.76-0.81 70.44-0.73 70.09-0.73ZM75.16-7.87L75.16 0L77.17 0C77.76 0 78.29-0.09 78.74-0.27C79.20-0.45 79.58-0.71 79.90-1.05C80.21-1.39 80.44-1.81 80.60-2.30C80.76-2.79 80.84-3.35 80.84-3.97C80.84-5.23 80.53-6.19 79.90-6.86C79.26-7.54 78.34-7.87 77.12-7.87ZM77.05-0.82L76.15-0.82L76.15-7.06L77.05-7.06C77.97-7.06 78.66-6.79 79.12-6.26C79.58-5.74 79.81-4.97 79.81-3.97C79.81-2.97 79.58-2.20 79.12-1.64C78.66-1.09 77.97-0.82 77.05-0.82ZM82.54-7.87L82.54 0L84.55 0C85.14 0 85.67-0.09 86.12-0.27C86.58-0.45 86.96-0.71 87.28-1.05C87.59-1.39 87.82-1.81 87.98-2.30C88.14-2.79 88.22-3.35 88.22-3.97C88.22-5.23 87.91-6.19 87.28-6.86C86.64-7.54 85.72-7.87 84.50-7.87ZM84.43-0.82L83.53-0.82L83.53-7.06L84.43-7.06C85.35-7.06 86.04-6.79 86.50-6.26C86.96-5.74 87.19-4.97 87.19-3.97C87.19-2.97 86.96-2.20 86.50-1.64C86.04-1.09 85.35-0.82 84.43-0.82ZM89.92-7.87L89.92 0L90.91 0L90.91-7.87ZM93.07-7.87L93.07 0L94.02 0L94.02-4.12C94.02-4.53 94.01-4.95 93.98-5.36C93.95-5.77 93.92-6.18 93.89-6.58L93.94-6.58L94.79-4.96L97.64 0L98.68 0L98.68-7.87L97.73-7.87L97.73-3.80C97.73-3.39 97.74-2.97 97.77-2.54C97.80-2.11 97.82-1.70 97.85-1.30L97.80-1.30L96.95-2.93L94.10-7.87ZM100.38-3.94C100.38-3.30 100.47-2.72 100.64-2.21C100.82-1.71 101.06-1.28 101.38-0.93C101.69-0.58 102.06-0.32 102.49-0.13C102.92 0.05 103.40 0.14 103.92 0.14C104.45 0.14 104.92 0.06 105.34-0.11C105.76-0.29 106.10-0.50 106.36-0.77L106.36-4.08L103.78-4.08L103.78-3.25L105.44-3.25L105.44-1.20C105.28-1.06 105.08-0.94 104.83-0.86C104.57-0.77 104.31-0.73 104.03-0.73C103.60-0.73 103.23-0.81 102.91-0.96C102.58-1.11 102.31-1.33 102.09-1.61C101.87-1.89 101.70-2.23 101.59-2.62C101.47-3.02 101.41-3.46 101.41-3.96C101.41-4.45 101.47-4.89 101.60-5.28C101.72-5.67 101.90-6.01 102.12-6.28C102.34-6.56 102.62-6.77 102.94-6.92C103.26-7.07 103.62-7.14 104.02-7.14C104.42-7.14 104.75-7.07 105.01-6.93C105.27-6.79 105.50-6.62 105.70-6.41L106.26-7.04C106.03-7.28 105.73-7.51 105.37-7.71C105.00-7.91 104.55-8.02 104.00-8.02C103.48-8.02 102.99-7.92 102.55-7.73C102.11-7.55 101.73-7.28 101.41-6.92C101.08-6.57 100.83-6.14 100.65-5.64C100.47-5.14 100.38-4.57 100.38-3.94Z" transform="translate(-1.08, 8.016)"></path></g></g></g></g></g></g></g><mask id="9ad6da84-d54b-48b6-bb76-f45ddb39a626"><g fill="white"><rect data-gra="graph-name-bg" stroke-width="2" class="i-icon-bg" x="0" y="0" width="115.27999877929688" height="12.160000801086426" fill-opacity="1"></rect>   </g> <g transform="translate(5,2)" fill="black"><g><path d="M2.08-4.14L2.08-7.07L3.40-7.07C4.01-7.07 4.48-6.96 4.81-6.76C5.14-6.55 5.30-6.18 5.30-5.66C5.30-5.15 5.14-4.77 4.81-4.52C4.48-4.27 4.01-4.14 3.40-4.14ZM5.40 0L6.53 0L4.54-3.43C5.07-3.57 5.50-3.82 5.82-4.19C6.14-4.56 6.30-5.05 6.30-5.66C6.30-6.07 6.23-6.42 6.10-6.70C5.96-6.98 5.77-7.20 5.53-7.38C5.28-7.56 4.99-7.68 4.65-7.76C4.31-7.83 3.94-7.87 3.54-7.87L1.08-7.87L1.08 0L2.08 0L2.08-3.32L3.50-3.32ZM8.05-7.87L8.05 0L9.05 0L9.05-7.87ZM10.75-3.94C10.75-3.30 10.84-2.72 11.02-2.21C11.19-1.71 11.44-1.28 11.75-0.93C12.06-0.58 12.43-0.32 12.86-0.13C13.30 0.05 13.77 0.14 14.29 0.14C14.82 0.14 15.29 0.06 15.71-0.11C16.13-0.29 16.47-0.50 16.73-0.77L16.73-4.08L14.15-4.08L14.15-3.25L15.82-3.25L15.82-1.20C15.66-1.06 15.45-0.94 15.20-0.86C14.95-0.77 14.68-0.73 14.40-0.73C13.98-0.73 13.60-0.81 13.28-0.96C12.95-1.11 12.68-1.33 12.46-1.61C12.24-1.89 12.07-2.23 11.96-2.62C11.84-3.02 11.78-3.46 11.78-3.96C11.78-4.45 11.85-4.89 11.97-5.28C12.09-5.67 12.27-6.01 12.49-6.28C12.72-6.56 12.99-6.77 13.31-6.92C13.63-7.07 13.99-7.14 14.39-7.14C14.79-7.14 15.12-7.07 15.38-6.93C15.64-6.79 15.87-6.62 16.07-6.41L16.63-7.04C16.40-7.28 16.10-7.51 15.74-7.71C15.37-7.91 14.92-8.02 14.38-8.02C13.85-8.02 13.36-7.92 12.92-7.73C12.48-7.55 12.10-7.28 11.78-6.92C11.45-6.57 11.20-6.14 11.02-5.64C10.84-5.14 10.75-4.57 10.75-3.94ZM18.61-7.87L18.61 0L19.61 0L19.61-3.71L23.27-3.71L23.27 0L24.28 0L24.28-7.87L23.27-7.87L23.27-4.57L19.61-4.57L19.61-7.87ZM28.07-7.03L28.07 0L29.08 0L29.08-7.03L31.45-7.03L31.45-7.87L25.69-7.87L25.69-7.03ZM35.29-7.87L35.29 0L36.29 0L36.29-3.53L39.29-3.53L39.29-4.37L36.29-4.37L36.29-7.03L39.83-7.03L39.83-7.87ZM44.00 0.14C44.50 0.14 44.95 0.05 45.37-0.14C45.78-0.34 46.13-0.61 46.43-0.97C46.73-1.32 46.97-1.75 47.13-2.26C47.29-2.77 47.38-3.34 47.38-3.97C47.38-4.60 47.29-5.16 47.13-5.66C46.97-6.16 46.73-6.58 46.43-6.93C46.13-7.28 45.78-7.55 45.37-7.73C44.95-7.92 44.50-8.02 44.00-8.02C43.51-8.02 43.05-7.92 42.64-7.74C42.23-7.56 41.88-7.29 41.58-6.94C41.28-6.59 41.05-6.17 40.89-5.67C40.73-5.17 40.64-4.60 40.64-3.97C40.64-3.34 40.73-2.77 40.89-2.26C41.05-1.75 41.28-1.32 41.58-0.97C41.88-0.61 42.23-0.34 42.64-0.14C43.05 0.05 43.51 0.14 44.00 0.14ZM44.00-0.73C43.65-0.73 43.33-0.81 43.05-0.96C42.77-1.11 42.52-1.33 42.32-1.61C42.11-1.90 41.96-2.24 41.84-2.63C41.73-3.03 41.68-3.48 41.68-3.97C41.68-4.46 41.73-4.90 41.84-5.29C41.96-5.68 42.11-6.02 42.32-6.29C42.52-6.56 42.77-6.77 43.05-6.92C43.33-7.07 43.65-7.14 44.00-7.14C44.36-7.14 44.67-7.07 44.96-6.92C45.24-6.77 45.49-6.56 45.69-6.29C45.89-6.02 46.05-5.68 46.16-5.29C46.28-4.90 46.33-4.46 46.33-3.97C46.33-3.48 46.28-3.03 46.16-2.63C46.05-2.24 45.89-1.90 45.69-1.61C45.49-1.33 45.24-1.11 44.96-0.96C44.67-0.81 44.36-0.73 44.00-0.73ZM50.06-4.14L50.06-7.07L51.38-7.07C52.00-7.07 52.47-6.96 52.80-6.76C53.13-6.55 53.29-6.18 53.29-5.66C53.29-5.15 53.13-4.77 52.80-4.52C52.47-4.27 52.00-4.14 51.38-4.14ZM53.39 0L54.52 0L52.52-3.43C53.06-3.57 53.49-3.82 53.81-4.19C54.13-4.56 54.29-5.05 54.29-5.66C54.29-6.07 54.22-6.42 54.08-6.70C53.95-6.98 53.76-7.20 53.51-7.38C53.27-7.56 52.98-7.68 52.64-7.76C52.30-7.83 51.93-7.87 51.53-7.87L49.07-7.87L49.07 0L50.06 0L50.06-3.32L51.49-3.32ZM58.46-7.87L58.46 0L59.39 0L59.39-4.33C59.39-4.68 59.37-5.07 59.34-5.50C59.31-5.92 59.28-6.31 59.26-6.66L59.30-6.66L59.93-4.91L61.45-0.79L62.02-0.79L63.53-4.91L64.16-6.66L64.21-6.66C64.18-6.31 64.15-5.92 64.12-5.50C64.09-5.07 64.08-4.68 64.08-4.33L64.08 0L65.03 0L65.03-7.87L63.85-7.87L62.34-3.65L61.79-2.04L61.74-2.04L61.16-3.65L59.64-7.87ZM70.09 0.14C70.59 0.14 71.04 0.05 71.45-0.14C71.87-0.34 72.22-0.61 72.52-0.97C72.82-1.32 73.05-1.75 73.22-2.26C73.38-2.77 73.46-3.34 73.46-3.97C73.46-4.60 73.38-5.16 73.22-5.66C73.05-6.16 72.82-6.58 72.52-6.93C72.22-7.28 71.87-7.55 71.45-7.73C71.04-7.92 70.59-8.02 70.09-8.02C69.60-8.02 69.14-7.92 68.73-7.74C68.32-7.56 67.96-7.29 67.67-6.94C67.37-6.59 67.14-6.17 66.98-5.67C66.81-5.17 66.73-4.60 66.73-3.97C66.73-3.34 66.81-2.77 66.98-2.26C67.14-1.75 67.37-1.32 67.67-0.97C67.96-0.61 68.32-0.34 68.73-0.14C69.14 0.05 69.60 0.14 70.09 0.14ZM70.09-0.73C69.74-0.73 69.42-0.81 69.14-0.96C68.85-1.11 68.61-1.33 68.41-1.61C68.20-1.90 68.04-2.24 67.93-2.63C67.82-3.03 67.76-3.48 67.76-3.97C67.76-4.46 67.82-4.90 67.93-5.29C68.04-5.68 68.20-6.02 68.41-6.29C68.61-6.56 68.85-6.77 69.14-6.92C69.42-7.07 69.74-7.14 70.09-7.14C70.44-7.14 70.76-7.07 71.05-6.92C71.33-6.77 71.57-6.56 71.78-6.29C71.98-6.02 72.14-5.68 72.25-5.29C72.36-4.90 72.42-4.46 72.42-3.97C72.42-3.48 72.36-3.03 72.25-2.63C72.14-2.24 71.98-1.90 71.78-1.61C71.57-1.33 71.33-1.11 71.05-0.96C70.76-0.81 70.44-0.73 70.09-0.73ZM75.16-7.87L75.16 0L77.17 0C77.76 0 78.29-0.09 78.74-0.27C79.20-0.45 79.58-0.71 79.90-1.05C80.21-1.39 80.44-1.81 80.60-2.30C80.76-2.79 80.84-3.35 80.84-3.97C80.84-5.23 80.53-6.19 79.90-6.86C79.26-7.54 78.34-7.87 77.12-7.87ZM77.05-0.82L76.15-0.82L76.15-7.06L77.05-7.06C77.97-7.06 78.66-6.79 79.12-6.26C79.58-5.74 79.81-4.97 79.81-3.97C79.81-2.97 79.58-2.20 79.12-1.64C78.66-1.09 77.97-0.82 77.05-0.82ZM82.54-7.87L82.54 0L84.55 0C85.14 0 85.67-0.09 86.12-0.27C86.58-0.45 86.96-0.71 87.28-1.05C87.59-1.39 87.82-1.81 87.98-2.30C88.14-2.79 88.22-3.35 88.22-3.97C88.22-5.23 87.91-6.19 87.28-6.86C86.64-7.54 85.72-7.87 84.50-7.87ZM84.43-0.82L83.53-0.82L83.53-7.06L84.43-7.06C85.35-7.06 86.04-6.79 86.50-6.26C86.96-5.74 87.19-4.97 87.19-3.97C87.19-2.97 86.96-2.20 86.50-1.64C86.04-1.09 85.35-0.82 84.43-0.82ZM89.92-7.87L89.92 0L90.91 0L90.91-7.87ZM93.07-7.87L93.07 0L94.02 0L94.02-4.12C94.02-4.53 94.01-4.95 93.98-5.36C93.95-5.77 93.92-6.18 93.89-6.58L93.94-6.58L94.79-4.96L97.64 0L98.68 0L98.68-7.87L97.73-7.87L97.73-3.80C97.73-3.39 97.74-2.97 97.77-2.54C97.80-2.11 97.82-1.70 97.85-1.30L97.80-1.30L96.95-2.93L94.10-7.87ZM100.38-3.94C100.38-3.30 100.47-2.72 100.64-2.21C100.82-1.71 101.06-1.28 101.38-0.93C101.69-0.58 102.06-0.32 102.49-0.13C102.92 0.05 103.40 0.14 103.92 0.14C104.45 0.14 104.92 0.06 105.34-0.11C105.76-0.29 106.10-0.50 106.36-0.77L106.36-4.08L103.78-4.08L103.78-3.25L105.44-3.25L105.44-1.20C105.28-1.06 105.08-0.94 104.83-0.86C104.57-0.77 104.31-0.73 104.03-0.73C103.60-0.73 103.23-0.81 102.91-0.96C102.58-1.11 102.31-1.33 102.09-1.61C101.87-1.89 101.70-2.23 101.59-2.62C101.47-3.02 101.41-3.46 101.41-3.96C101.41-4.45 101.47-4.89 101.60-5.28C101.72-5.67 101.90-6.01 102.12-6.28C102.34-6.56 102.62-6.77 102.94-6.92C103.26-7.07 103.62-7.14 104.02-7.14C104.42-7.14 104.75-7.07 105.01-6.93C105.27-6.79 105.50-6.62 105.70-6.41L106.26-7.04C106.03-7.28 105.73-7.51 105.37-7.71C105.00-7.91 104.55-8.02 104.00-8.02C103.48-8.02 102.99-7.92 102.55-7.73C102.11-7.55 101.73-7.28 101.41-6.92C101.08-6.57 100.83-6.14 100.65-5.64C100.47-5.14 100.38-4.57 100.38-3.94Z" transform="translate(-1.08, 8.016)"></path></g></g></mask><defs v-gra="od"></defs></svg>